<svg xmlns="http://www.w3.org/2000/svg" viewBox="0 0 520 200">
  <defs>
    <linearGradient id="tim" x1="0%" y1="0%" x2="100%" y2="0%">
      <stop offset="0%" stop-color="rgb(13,148,136)"/>
      <stop offset="100%" stop-color="rgb(94,234,212)"/>
    </linearGradient>
  </defs>
  <g fill="url(#tim)">
    <rect x="20" y="0" width="20" height="40"/>
    <rect x="40" y="0" width="20" height="40"/>
    <rect x="60" y="0" width="20" height="40"/>
    <rect x="80" y="0" width="20" height="40"/>
    <rect x="100" y="0" width="20" height="40"/>
    <rect x="120" y="0" width="20" height="40"/>
    <rect x="140" y="0" width="20" height="40"/>
    <rect x="160" y="0" width="20" height="40"/>
    <rect x="180" y="12.75" width="14.25" height="2.5"/>
    <rect x="191.75" y="12.75" width="2.5" height="27.25"/>
    <rect x="180" y="24.75" width="8.25" height="2.5"/>
    <rect x="185.75" y="24.75" width="2.5" height="15.25"/>
    <rect x="220" y="0" width="20" height="40"/>
    <rect x="240" y="0" width="20" height="40"/>
    <rect x="260" y="12.75" width="14.25" height="2.5"/>
    <rect x="271.75" y="12.75" width="2.5" height="27.25"/>
    <rect x="260" y="24.75" width="8.25" height="2.5"/>
    <rect x="265.75" y="24.75" width="2.5" height="15.25"/>
    <rect x="300" y="0" width="20" height="40"/>
    <rect x="320" y="0" width="20" height="40"/>
    <rect x="340" y="0" width="20" height="40"/>
    <rect x="360" y="12.75" width="14.25" height="2.5"/>
    <rect x="371.75" y="12.75" width="2.5" height="27.25"/>
    <rect x="360" y="24.75" width="8.25" height="2.5"/>
    <rect x="365.75" y="24.75" width="2.5" height="15.25"/>
    <rect x="440" y="0" width="20" height="40"/>
    <rect x="460" y="0" width="20" height="40"/>
    <rect x="480" y="0" width="20" height="40"/>
    <rect x="500" y="12.75" width="14.25" height="2.5"/>
    <rect x="511.75" y="12.75" width="2.5" height="27.25"/>
    <rect x="500" y="24.75" width="8.25" height="2.5"/>
    <rect x="505.75" y="24.75" width="2.5" height="15.25"/>
    <rect x="25.75" y="64.75" width="14.25" height="2.5"/>
    <rect x="25.75" y="40" width="2.5" height="27.25"/>
    <rect x="31.75" y="52.75" width="8.25" height="2.5"/>
    <rect x="31.75" y="40" width="2.5" height="15.25"/>
    <rect x="40" y="52.75" width="20" height="2.5"/>
    <rect x="40" y="64.75" width="20" height="2.5"/>
    <rect x="60" y="52.75" width="20" height="2.5"/>
    <rect x="60" y="64.75" width="20" height="2.5"/>
    <rect x="80" y="40" width="20" height="40"/>
    <rect x="100" y="40" width="20" height="40"/>
    <rect x="125.75" y="52.75" width="14.25" height="2.5"/>
    <rect x="125.75" y="52.75" width="2.5" height="27.25"/>
    <rect x="131.75" y="64.75" width="8.25" height="2.5"/>
    <rect x="131.75" y="64.75" width="2.5" height="15.25"/>
    <rect x="140" y="52.75" width="20" height="2.5"/>
    <rect x="140" y="64.75" width="20" height="2.5"/>
    <rect x="160" y="52.75" width="20" height="2.5"/>
    <rect x="160" y="64.75" width="20" height="2.5"/>
    <rect x="180" y="64.75" width="14.25" height="2.5"/>
    <rect x="191.75" y="40" width="2.5" height="27.25"/>
    <rect x="180" y="52.75" width="8.25" height="2.5"/>
    <rect x="185.75" y="40" width="2.5" height="15.25"/>
    <rect x="220" y="40" width="20" height="40"/>
    <rect x="240" y="40" width="20" height="40"/>
    <rect x="265.75" y="40" width="2.5" height="40"/>
    <rect x="271.75" y="40" width="2.5" height="40"/>
    <rect x="300" y="40" width="20" height="40"/>
    <rect x="320" y="40" width="20" height="40"/>
    <rect x="340" y="40" width="20" height="40"/>
    <rect x="360" y="40" width="20" height="40"/>
    <rect x="380" y="52.75" width="14.25" height="2.5"/>
    <rect x="391.75" y="52.75" width="2.5" height="27.25"/>
    <rect x="380" y="64.75" width="8.25" height="2.5"/>
    <rect x="385.75" y="64.75" width="2.5" height="15.25"/>
    <rect x="420" y="40" width="20" height="40"/>
    <rect x="440" y="40" width="20" height="40"/>
    <rect x="460" y="40" width="20" height="40"/>
    <rect x="480" y="40" width="20" height="40"/>
    <rect x="505.75" y="40" width="2.5" height="40"/>
    <rect x="511.75" y="40" width="2.5" height="40"/>
    <rect x="80" y="80" width="20" height="40"/>
    <rect x="100" y="80" width="20" height="40"/>
    <rect x="125.75" y="80" width="2.5" height="40"/>
    <rect x="131.75" y="80" width="2.5" height="40"/>
    <rect x="220" y="80" width="20" height="40"/>
    <rect x="240" y="80" width="20" height="40"/>
    <rect x="265.75" y="80" width="2.5" height="40"/>
    <rect x="271.75" y="80" width="2.5" height="40"/>
    <rect x="300" y="80" width="20" height="40"/>
    <rect x="320" y="80" width="20" height="40"/>
    <rect x="345.75" y="80" width="2.5" height="40"/>
    <rect x="351.75" y="80" width="2.5" height="40"/>
    <rect x="365.75" y="104.75" width="14.25" height="2.5"/>
    <rect x="365.75" y="80" width="2.5" height="27.25"/>
    <rect x="371.75" y="92.75" width="8.25" height="2.5"/>
    <rect x="371.75" y="80" width="2.5" height="15.25"/>
    <rect x="380" y="80" width="20" height="40"/>
    <rect x="400" y="80" width="20" height="40"/>
    <rect x="425.75" y="92.75" width="14.25" height="2.5"/>
    <rect x="425.75" y="92.75" width="2.5" height="27.25"/>
    <rect x="431.75" y="104.75" width="8.25" height="2.5"/>
    <rect x="431.75" y="104.75" width="2.5" height="15.25"/>
    <rect x="440" y="104.75" width="14.25" height="2.5"/>
    <rect x="451.75" y="80" width="2.5" height="27.25"/>
    <rect x="440" y="92.75" width="8.25" height="2.5"/>
    <rect x="445.75" y="80" width="2.5" height="15.25"/>
    <rect x="460" y="80" width="20" height="40"/>
    <rect x="480" y="80" width="20" height="40"/>
    <rect x="505.75" y="80" width="2.5" height="40"/>
    <rect x="511.75" y="80" width="2.5" height="40"/>
    <rect x="80" y="120" width="20" height="40"/>
    <rect x="100" y="120" width="20" height="40"/>
    <rect x="125.75" y="120" width="2.5" height="40"/>
    <rect x="131.75" y="120" width="2.5" height="40"/>
    <rect x="220" y="120" width="20" height="40"/>
    <rect x="240" y="120" width="20" height="40"/>
    <rect x="265.75" y="120" width="2.5" height="40"/>
    <rect x="271.75" y="120" width="2.5" height="40"/>
    <rect x="300" y="120" width="20" height="40"/>
    <rect x="320" y="120" width="20" height="40"/>
    <rect x="345.75" y="120" width="2.5" height="40"/>
    <rect x="351.75" y="120" width="2.5" height="40"/>
    <rect x="385.75" y="144.75" width="14.25" height="2.5"/>
    <rect x="385.75" y="120" width="2.5" height="27.25"/>
    <rect x="391.75" y="132.75" width="8.25" height="2.5"/>
    <rect x="391.75" y="120" width="2.5" height="15.25"/>
    <rect x="400" y="132.75" width="20" height="2.5"/>
    <rect x="400" y="144.75" width="20" height="2.5"/>
    <rect x="420" y="144.75" width="14.25" height="2.5"/>
    <rect x="431.75" y="120" width="2.5" height="27.25"/>
    <rect x="420" y="132.75" width="8.25" height="2.5"/>
    <rect x="425.75" y="120" width="2.5" height="15.25"/>
    <rect x="460" y="120" width="20" height="40"/>
    <rect x="480" y="120" width="20" height="40"/>
    <rect x="505.75" y="120" width="2.5" height="40"/>
    <rect x="511.75" y="120" width="2.5" height="40"/>
    <rect x="85.75" y="184.75" width="14.25" height="2.5"/>
    <rect x="85.75" y="160" width="2.5" height="27.25"/>
    <rect x="91.75" y="172.75" width="8.25" height="2.5"/>
    <rect x="91.75" y="160" width="2.5" height="15.25"/>
    <rect x="100" y="172.75" width="20" height="2.5"/>
    <rect x="100" y="184.75" width="20" height="2.5"/>
    <rect x="120" y="184.75" width="14.25" height="2.5"/>
    <rect x="131.75" y="160" width="2.5" height="27.25"/>
    <rect x="120" y="172.75" width="8.25" height="2.5"/>
    <rect x="125.75" y="160" width="2.5" height="15.25"/>
    <rect x="225.75" y="184.75" width="14.25" height="2.5"/>
    <rect x="225.75" y="160" width="2.5" height="27.25"/>
    <rect x="231.75" y="172.75" width="8.25" height="2.5"/>
    <rect x="231.75" y="160" width="2.5" height="15.25"/>
    <rect x="240" y="172.75" width="20" height="2.5"/>
    <rect x="240" y="184.75" width="20" height="2.5"/>
    <rect x="260" y="184.75" width="14.25" height="2.5"/>
    <rect x="271.75" y="160" width="2.5" height="27.25"/>
    <rect x="260" y="172.75" width="8.25" height="2.5"/>
    <rect x="265.75" y="160" width="2.5" height="15.25"/>
    <rect x="305.75" y="184.75" width="14.25" height="2.5"/>
    <rect x="305.75" y="160" width="2.5" height="27.25"/>
    <rect x="311.75" y="172.75" width="8.25" height="2.5"/>
    <rect x="311.75" y="160" width="2.5" height="15.25"/>
    <rect x="320" y="172.75" width="20" height="2.5"/>
    <rect x="320" y="184.75" width="20" height="2.5"/>
    <rect x="340" y="184.75" width="14.25" height="2.5"/>
    <rect x="351.75" y="160" width="2.5" height="27.25"/>
    <rect x="340" y="172.75" width="8.25" height="2.5"/>
    <rect x="345.75" y="160" width="2.5" height="15.25"/>
    <rect x="465.75" y="184.75" width="14.25" height="2.5"/>
    <rect x="465.75" y="160" width="2.5" height="27.25"/>
    <rect x="471.75" y="172.75" width="8.25" height="2.5"/>
    <rect x="471.75" y="160" width="2.5" height="15.25"/>
    <rect x="480" y="172.75" width="20" height="2.5"/>
    <rect x="480" y="184.75" width="20" height="2.5"/>
    <rect x="500" y="184.75" width="14.25" height="2.5"/>
    <rect x="511.75" y="160" width="2.5" height="27.25"/>
    <rect x="500" y="172.75" width="8.25" height="2.5"/>
    <rect x="505.75" y="160" width="2.5" height="15.25"/>
  </g>
</svg>
